<svg width="117" height="29" viewBox="0 0 117 29" fill="none" xmlns="http://www.w3.org/2000/svg">
<path d="M0.852266 29V28.244L4.16427 27.704V1.496L0.852266 0.991998V0.2H22.5243V8.444H21.5523L18.7803 1.1H8.12427V14.06H12.8043L14.9283 8.84H15.8643V20.216H14.9283L12.7683 14.924H8.12427V28.136H19.4283L22.3803 20.216H23.3163V29H0.852266ZM27.8776 29V28.244L31.1896 27.704V1.496L27.8776 0.991998V0.2H38.4616V0.991998L35.1496 1.496V28.136H45.9136L48.8656 20.216H49.8376V29H27.8776ZM53.2505 29V28.244L56.5625 27.704V1.496L53.2505 0.991998V0.2H63.8345V0.991998L60.5225 1.496V27.704L63.8345 28.244V29H53.2505ZM73.6634 29V28.244L76.9754 27.704V1.1H71.0354L68.2994 8.228H67.2554V0.2H90.6914V8.228H89.6114L86.9114 1.1H80.9354V27.704L84.2474 28.244V29H73.6634ZM94.0824 29V28.244L97.3944 27.704V1.496L94.0824 0.991998V0.2H115.754V8.444H114.782L112.01 1.1H101.354V14.06H106.034L108.158 8.84H109.094V20.216H108.158L105.998 14.924H101.354V28.136H112.658L115.61 20.216H116.546V29H94.0824Z" fill="white"/>
</svg>
